<svg xmlns="http://www.w3.org/2000/svg" xmlns:xlink="http://www.w3.org/1999/xlink" contentStyleType="text/css" data-diagram-type="CLASS" height="1137px" preserveAspectRatio="none" style="width:1753px;height:1137px;background:#FFFFFF;" version="1.1" viewBox="0 0 1753 1137" width="1753px" zoomAndPan="magnify"><title>Diagrama de Clases - Sistema de Biblioteca</title><defs/><g><g class="title" data-source-line="2"><text fill="#000000" font-family="sans-serif" font-size="14" font-weight="bold" lengthAdjust="spacing" textLength="343.123" x="698.0829" y="22.9951">Diagrama de Clases - Sistema de Biblioteca</text></g><!--class Persona--><g class="entity" data-entity="Persona" data-source-line="5" data-uid="ent0002" id="entity_Persona"><rect fill="#F1F1F1" height="129.4844" rx="2.5" ry="2.5" style="stroke:#181818;stroke-width:0.5;" width="166.793" x="98.08" y="85.0469"/><ellipse cx="149.165" cy="101.0469" fill="#A9DCDF" rx="11" ry="11" style="stroke:#181818;stroke-width:1;"/><path d="M149.2743,96.3906 L148.1181,101.4688 L150.4462,101.4688 L149.2743,96.3906 Z M147.79,94.1563 L150.7743,94.1563 L154.1337,106.5469 L151.6806,106.5469 L150.915,103.4844 L147.6337,103.4844 L146.8837,106.5469 L144.4462,106.5469 L147.79,94.1563 Z " fill="#000000"/><text fill="#000000" font-family="sans-serif" font-size="14" font-style="italic" lengthAdjust="spacing" textLength="56.123" x="169.665" y="105.8936">Persona</text><line style="stroke:#181818;stroke-width:0.5;" x1="99.08" x2="263.873" y1="117.0469" y2="117.0469"/><rect fill="none" height="6" style="stroke:#C82930;stroke-width:1;" width="6" x="106.08" y="127.6953"/><text fill="#000000" font-family="sans-serif" font-size="14" lengthAdjust="spacing" textLength="63.7246" x="118.08" y="134.042">id: String</text><rect fill="none" height="6" style="stroke:#C82930;stroke-width:1;" width="6" x="106.08" y="143.9922"/><text fill="#000000" font-family="sans-serif" font-size="14" lengthAdjust="spacing" textLength="105.2803" x="118.08" y="150.3389">nombre: String</text><rect fill="none" height="6" style="stroke:#C82930;stroke-width:1;" width="6" x="106.08" y="160.2891"/><text fill="#000000" font-family="sans-serif" font-size="14" lengthAdjust="spacing" textLength="111.9043" x="118.08" y="166.6357">contacto: String</text><line style="stroke:#181818;stroke-width:0.5;" x1="99.08" x2="263.873" y1="173.9375" y2="173.9375"/><ellipse cx="109.08" cy="187.5859" fill="#84BE84" rx="3" ry="3" style="stroke:#038048;stroke-width:1;"/><text fill="#000000" font-family="sans-serif" font-size="14" lengthAdjust="spacing" textLength="97.877" x="118.08" y="190.9326">getId(): String</text><ellipse cx="109.08" cy="203.8828" fill="#84BE84" rx="3" ry="3" style="stroke:#038048;stroke-width:1;"/><text fill="#000000" font-family="sans-serif" font-size="14" lengthAdjust="spacing" textLength="140.793" x="118.08" y="207.2295">getNombre(): String</text></g><!--class Usuario--><g class="entity" data-entity="Usuario" data-source-line="13" data-uid="ent0003" id="entity_Usuario"><rect fill="#F1F1F1" height="96.8906" rx="2.5" ry="2.5" style="stroke:#181818;stroke-width:0.5;" width="313.875" x="484.53" y="348.5669"/><ellipse cx="610.6154" cy="364.5669" fill="#ADD1B2" rx="11" ry="11" style="stroke:#181818;stroke-width:1;"/><path d="M613.5842,370.2075 Q613.0061,370.5044 612.3654,370.645 Q611.7248,370.8013 611.0217,370.8013 Q608.5217,370.8013 607.1936,369.1606 Q605.8811,367.5044 605.8811,364.3794 Q605.8811,361.2544 607.1936,359.5981 Q608.5217,357.9419 611.0217,357.9419 Q611.7248,357.9419 612.3654,358.0981 Q613.0217,358.2544 613.5842,358.5513 L613.5842,361.27 Q612.9592,360.6919 612.3654,360.4263 Q611.7717,360.145 611.1467,360.145 Q609.8029,360.145 609.1154,361.2231 Q608.4279,362.2856 608.4279,364.3794 Q608.4279,366.4731 609.1154,367.5513 Q609.8029,368.6138 611.1467,368.6138 Q611.7717,368.6138 612.3654,368.3481 Q612.9592,368.0669 613.5842,367.4888 L613.5842,370.2075 Z " fill="#000000"/><text fill="#000000" font-family="sans-serif" font-size="14" lengthAdjust="spacing" textLength="53.2041" x="631.1154" y="369.4136">Usuario</text><line style="stroke:#181818;stroke-width:0.5;" x1="485.53" x2="797.405" y1="380.5669" y2="380.5669"/><line style="stroke:#181818;stroke-width:0.5;" x1="485.53" x2="797.405" y1="388.5669" y2="388.5669"/><ellipse cx="495.53" cy="402.2153" fill="#84BE84" rx="3" ry="3" style="stroke:#038048;stroke-width:1;"/><text fill="#000000" font-family="sans-serif" font-size="14" lengthAdjust="spacing" textLength="282.9463" x="504.53" y="405.562">solicitarPrestamo(libro: Libro): Prestamo</text><ellipse cx="495.53" cy="418.5122" fill="#84BE84" rx="3" ry="3" style="stroke:#038048;stroke-width:1;"/><text fill="#000000" font-family="sans-serif" font-size="14" lengthAdjust="spacing" textLength="287.875" x="504.53" y="421.8589">devolverLibro(prestamo: Prestamo): void</text><ellipse cx="495.53" cy="434.8091" fill="#84BE84" rx="3" ry="3" style="stroke:#038048;stroke-width:1;"/><text fill="#000000" font-family="sans-serif" font-size="14" lengthAdjust="spacing" textLength="285.5098" x="504.53" y="438.1557">buscarLibro(criterio: String): List&lt;Libro&gt;</text></g><!--class Bibliotecario--><g class="entity" data-entity="Bibliotecario" data-source-line="19" data-uid="ent0005" id="entity_Bibliotecario"><rect fill="#F1F1F1" height="129.4844" rx="2.5" ry="2.5" style="stroke:#181818;stroke-width:0.5;" width="442.9443" x="7" y="332.2669"/><ellipse cx="180.5645" cy="348.2669" fill="#ADD1B2" rx="11" ry="11" style="stroke:#181818;stroke-width:1;"/><path d="M183.5332,353.9075 Q182.9551,354.2044 182.3145,354.345 Q181.6738,354.5012 180.9707,354.5012 Q178.4707,354.5012 177.1426,352.8606 Q175.8301,351.2044 175.8301,348.0794 Q175.8301,344.9544 177.1426,343.2981 Q178.4707,341.6419 180.9707,341.6419 Q181.6738,341.6419 182.3145,341.7981 Q182.9707,341.9544 183.5332,342.2512 L183.5332,344.97 Q182.9082,344.3919 182.3145,344.1262 Q181.7207,343.845 181.0957,343.845 Q179.752,343.845 179.0645,344.9231 Q178.377,345.9856 178.377,348.0794 Q178.377,350.1731 179.0645,351.2512 Q179.752,352.3137 181.0957,352.3137 Q181.7207,352.3137 182.3145,352.0481 Q182.9082,351.7669 183.5332,351.1887 L183.5332,353.9075 Z " fill="#000000"/><text fill="#000000" font-family="sans-serif" font-size="14" lengthAdjust="spacing" textLength="87.3154" x="201.0645" y="353.1136">Bibliotecario</text><line style="stroke:#181818;stroke-width:0.5;" x1="8" x2="448.9443" y1="364.2669" y2="364.2669"/><line style="stroke:#181818;stroke-width:0.5;" x1="8" x2="448.9443" y1="372.2669" y2="372.2669"/><ellipse cx="18" cy="385.9153" fill="#84BE84" rx="3" ry="3" style="stroke:#038048;stroke-width:1;"/><text fill="#000000" font-family="sans-serif" font-size="14" lengthAdjust="spacing" textLength="264.0449" x="27" y="389.262">registrarUsuario(datos: Map): Usuario</text><ellipse cx="18" cy="402.2122" fill="#84BE84" rx="3" ry="3" style="stroke:#038048;stroke-width:1;"/><text fill="#000000" font-family="sans-serif" font-size="14" lengthAdjust="spacing" textLength="233.4336" x="27" y="405.5589">catalogarLibro(datos: Map): Libro</text><ellipse cx="18" cy="418.5091" fill="#84BE84" rx="3" ry="3" style="stroke:#038048;stroke-width:1;"/><text fill="#000000" font-family="sans-serif" font-size="14" lengthAdjust="spacing" textLength="264.25" x="27" y="421.8557">generarReporte(tipo: String): Reporte</text><ellipse cx="18" cy="434.8059" fill="#84BE84" rx="3" ry="3" style="stroke:#038048;stroke-width:1;"/><text fill="#000000" font-family="sans-serif" font-size="14" lengthAdjust="spacing" textLength="416.9443" x="27" y="438.1526">gestionarPrestamo(usuario: Usuario, libro: Libro): Prestamo</text><ellipse cx="18" cy="451.1028" fill="#84BE84" rx="3" ry="3" style="stroke:#038048;stroke-width:1;"/><text fill="#000000" font-family="sans-serif" font-size="14" lengthAdjust="spacing" textLength="314.6035" x="27" y="454.4495">recibirDevolucion(prestamo: Prestamo): void</text></g><!--class Libro--><g class="entity" data-entity="Libro" data-source-line="28" data-uid="ent0007" id="entity_Libro"><rect fill="#F1F1F1" height="178.375" rx="2.5" ry="2.5" style="stroke:#181818;stroke-width:0.5;" width="206.3252" x="967.31" y="777.8269"/><ellipse cx="1048.7739" cy="793.8269" fill="#ADD1B2" rx="11" ry="11" style="stroke:#181818;stroke-width:1;"/><path d="M1051.7426,799.4675 Q1051.1645,799.7644 1050.5239,799.905 Q1049.8832,800.0613 1049.1801,800.0613 Q1046.6801,800.0613 1045.352,798.4206 Q1044.0395,796.7644 1044.0395,793.6394 Q1044.0395,790.5144 1045.352,788.8581 Q1046.6801,787.2019 1049.1801,787.2019 Q1049.8832,787.2019 1050.5239,787.3581 Q1051.1801,787.5144 1051.7426,787.8113 L1051.7426,790.53 Q1051.1176,789.9519 1050.5239,789.6863 Q1049.9301,789.405 1049.3051,789.405 Q1047.9614,789.405 1047.2739,790.4831 Q1046.5864,791.5456 1046.5864,793.6394 Q1046.5864,795.7331 1047.2739,796.8113 Q1047.9614,797.8738 1049.3051,797.8738 Q1049.9301,797.8738 1050.5239,797.6081 Q1051.1176,797.3269 1051.7426,796.7488 L1051.7426,799.4675 Z " fill="#000000"/><text fill="#000000" font-family="sans-serif" font-size="14" lengthAdjust="spacing" textLength="34.8975" x="1069.2739" y="798.6736">Libro</text><line style="stroke:#181818;stroke-width:0.5;" x1="968.31" x2="1172.6352" y1="809.8269" y2="809.8269"/><rect fill="none" height="6" style="stroke:#C82930;stroke-width:1;" width="6" x="975.31" y="820.4753"/><text fill="#000000" font-family="sans-serif" font-size="14" lengthAdjust="spacing" textLength="79.8916" x="987.31" y="826.822">isbn: String</text><rect fill="none" height="6" style="stroke:#C82930;stroke-width:1;" width="6" x="975.31" y="836.7722"/><text fill="#000000" font-family="sans-serif" font-size="14" lengthAdjust="spacing" textLength="87.1445" x="987.31" y="843.1189">titulo: String</text><rect fill="none" height="6" style="stroke:#C82930;stroke-width:1;" width="6" x="975.31" y="853.0691"/><text fill="#000000" font-family="sans-serif" font-size="14" lengthAdjust="spacing" textLength="88.2109" x="987.31" y="859.4157">autor: String</text><rect fill="none" height="6" style="stroke:#C82930;stroke-width:1;" width="6" x="975.31" y="869.3659"/><text fill="#000000" font-family="sans-serif" font-size="14" lengthAdjust="spacing" textLength="139.1523" x="987.31" y="875.7126">estado: EstadoLibro</text><line style="stroke:#181818;stroke-width:0.5;" x1="968.31" x2="1172.6352" y1="883.0144" y2="883.0144"/><ellipse cx="978.31" cy="896.6628" fill="#84BE84" rx="3" ry="3" style="stroke:#038048;stroke-width:1;"/><text fill="#000000" font-family="sans-serif" font-size="14" lengthAdjust="spacing" textLength="114.0439" x="987.31" y="900.0095">getIsbn(): String</text><ellipse cx="978.31" cy="912.9597" fill="#84BE84" rx="3" ry="3" style="stroke:#038048;stroke-width:1;"/><text fill="#000000" font-family="sans-serif" font-size="14" lengthAdjust="spacing" textLength="124.1201" x="987.31" y="916.3064">getTitulo(): String</text><ellipse cx="978.31" cy="929.2566" fill="#84BE84" rx="3" ry="3" style="stroke:#038048;stroke-width:1;"/><text fill="#000000" font-family="sans-serif" font-size="14" lengthAdjust="spacing" textLength="123.1221" x="987.31" y="932.6032">getAutor(): String</text><ellipse cx="978.31" cy="945.5534" fill="#84BE84" rx="3" ry="3" style="stroke:#038048;stroke-width:1;"/><text fill="#000000" font-family="sans-serif" font-size="14" lengthAdjust="spacing" textLength="180.3252" x="987.31" y="948.9001">estaDisponible(): Boolean</text></g><!--class EstadoLibro--><g class="entity" data-entity="EstadoLibro" data-source-line="39" data-uid="ent0008" id="entity_EstadoLibro"><rect fill="#F1F1F1" height="96.8906" rx="2.5" ry="2.5" style="stroke:#181818;stroke-width:0.5;" width="114.5576" x="1013.19" y="1033.2069"/><ellipse cx="1028.19" cy="1049.2069" fill="#EB937F" rx="11" ry="11" style="stroke:#181818;stroke-width:1;"/><path d="M1032.2994,1055.2069 L1024.5806,1055.2069 L1024.5806,1042.8162 L1032.2994,1042.8162 L1032.2994,1044.9725 L1027.0338,1044.9725 L1027.0338,1047.6444 L1031.7994,1047.6444 L1031.7994,1049.8006 L1027.0338,1049.8006 L1027.0338,1053.0506 L1032.2994,1053.0506 L1032.2994,1055.2069 Z " fill="#000000"/><text fill="#000000" font-family="sans-serif" font-size="14" lengthAdjust="spacing" textLength="82.5576" x="1042.19" y="1054.0536">EstadoLibro</text><line style="stroke:#181818;stroke-width:0.5;" x1="1014.19" x2="1126.7476" y1="1065.2069" y2="1065.2069"/><text fill="#000000" font-family="sans-serif" font-size="14" lengthAdjust="spacing" textLength="84.1094" x="1019.19" y="1082.202">DISPONIBLE</text><text fill="#000000" font-family="sans-serif" font-size="14" lengthAdjust="spacing" textLength="75.8311" x="1019.19" y="1098.4989">PRESTADO</text><text fill="#000000" font-family="sans-serif" font-size="14" lengthAdjust="spacing" textLength="86.9873" x="1019.19" y="1114.7957">RESERVADO</text><line style="stroke:#181818;stroke-width:0.5;" x1="1014.19" x2="1126.7476" y1="1122.0975" y2="1122.0975"/></g><!--class Prestamo--><g class="entity" data-entity="Prestamo" data-source-line="45" data-uid="ent0009" id="entity_Prestamo"><rect fill="#F1F1F1" height="162.0781" rx="2.5" ry="2.5" style="stroke:#181818;stroke-width:0.5;" width="241.7012" x="618.62" y="538.7569"/><ellipse cx="702.0321" cy="554.7569" fill="#ADD1B2" rx="11" ry="11" style="stroke:#181818;stroke-width:1;"/><path d="M705.0009,560.3975 Q704.4227,560.6944 703.7821,560.835 Q703.1415,560.9912 702.4384,560.9912 Q699.9384,560.9912 698.6102,559.3506 Q697.2977,557.6944 697.2977,554.5694 Q697.2977,551.4444 698.6102,549.7881 Q699.9384,548.1319 702.4384,548.1319 Q703.1415,548.1319 703.7821,548.2881 Q704.4384,548.4444 705.0009,548.7412 L705.0009,551.46 Q704.3759,550.8819 703.7821,550.6162 Q703.1884,550.335 702.5634,550.335 Q701.2196,550.335 700.5321,551.4131 Q699.8446,552.4756 699.8446,554.5694 Q699.8446,556.6631 700.5321,557.7412 Q701.2196,558.8037 702.5634,558.8037 Q703.1884,558.8037 703.7821,558.5381 Q704.3759,558.2569 705.0009,557.6787 L705.0009,560.3975 Z " fill="#000000"/><text fill="#000000" font-family="sans-serif" font-size="14" lengthAdjust="spacing" textLength="66.377" x="722.5321" y="559.6036">Prestamo</text><line style="stroke:#181818;stroke-width:0.5;" x1="619.62" x2="859.3212" y1="570.7569" y2="570.7569"/><rect fill="none" height="6" style="stroke:#C82930;stroke-width:1;" width="6" x="626.62" y="581.4053"/><text fill="#000000" font-family="sans-serif" font-size="14" lengthAdjust="spacing" textLength="130.1016" x="638.62" y="587.752">idPrestamo: String</text><rect fill="none" height="6" style="stroke:#C82930;stroke-width:1;" width="6" x="626.62" y="597.7022"/><text fill="#000000" font-family="sans-serif" font-size="14" lengthAdjust="spacing" textLength="75.0518" x="638.62" y="604.0489">libro: Libro</text><rect fill="none" height="6" style="stroke:#C82930;stroke-width:1;" width="6" x="626.62" y="613.9991"/><text fill="#000000" font-family="sans-serif" font-size="14" lengthAdjust="spacing" textLength="114.2012" x="638.62" y="620.3457">usuario: Usuario</text><rect fill="none" height="6" style="stroke:#C82930;stroke-width:1;" width="6" x="626.62" y="630.2959"/><text fill="#000000" font-family="sans-serif" font-size="14" lengthAdjust="spacing" textLength="147.6973" x="638.62" y="636.6426">fechaPrestamo: Date</text><rect fill="none" height="6" style="stroke:#C82930;stroke-width:1;" width="6" x="626.62" y="646.5928"/><text fill="#000000" font-family="sans-serif" font-size="14" lengthAdjust="spacing" textLength="215.7012" x="638.62" y="652.9395">fechaDevolucionPrevista: Date</text><rect fill="none" height="6" style="stroke:#C82930;stroke-width:1;" width="6" x="626.62" y="662.8897"/><text fill="#000000" font-family="sans-serif" font-size="14" lengthAdjust="spacing" textLength="190.1621" x="638.62" y="669.2364">fechaDevolucionReal: Date</text><line style="stroke:#181818;stroke-width:0.5;" x1="619.62" x2="859.3212" y1="676.5381" y2="676.5381"/><ellipse cx="629.62" cy="690.1866" fill="#84BE84" rx="3" ry="3" style="stroke:#038048;stroke-width:1;"/><text fill="#000000" font-family="sans-serif" font-size="14" lengthAdjust="spacing" textLength="145.4141" x="638.62" y="693.5332">calcularMulta(): float</text></g><!--class Reporte--><g class="entity" data-entity="Reporte" data-source-line="55" data-uid="ent0010" id="entity_Reporte"><rect fill="#F1F1F1" height="96.8906" rx="2.5" ry="2.5" style="stroke:#181818;stroke-width:0.5;" width="187.6289" x="1558.66" y="101.3369"/><ellipse cx="1620.3988" cy="117.3369" fill="#ADD1B2" rx="11" ry="11" style="stroke:#181818;stroke-width:1;"/><path d="M1623.3675,122.9775 Q1622.7894,123.2744 1622.1488,123.415 Q1621.5081,123.5712 1620.805,123.5712 Q1618.305,123.5712 1616.9769,121.9306 Q1615.6644,120.2744 1615.6644,117.1494 Q1615.6644,114.0244 1616.9769,112.3681 Q1618.305,110.7119 1620.805,110.7119 Q1621.5081,110.7119 1622.1488,110.8681 Q1622.805,111.0244 1623.3675,111.3212 L1623.3675,114.04 Q1622.7425,113.4619 1622.1488,113.1962 Q1621.555,112.915 1620.93,112.915 Q1619.5863,112.915 1618.8988,113.9931 Q1618.2113,115.0556 1618.2113,117.1494 Q1618.2113,119.2431 1618.8988,120.3212 Q1619.5863,121.3837 1620.93,121.3837 Q1621.555,121.3837 1622.1488,121.1181 Q1622.7425,120.8369 1623.3675,120.2587 L1623.3675,122.9775 Z " fill="#000000"/><text fill="#000000" font-family="sans-serif" font-size="14" lengthAdjust="spacing" textLength="55.6514" x="1640.8988" y="122.1836">Reporte</text><line style="stroke:#181818;stroke-width:0.5;" x1="1559.66" x2="1745.2889" y1="133.3369" y2="133.3369"/><rect fill="none" height="6" style="stroke:#C82930;stroke-width:1;" width="6" x="1566.66" y="143.9853"/><text fill="#000000" font-family="sans-serif" font-size="14" lengthAdjust="spacing" textLength="77.7793" x="1578.66" y="150.332">tipo: String</text><rect fill="none" height="6" style="stroke:#C82930;stroke-width:1;" width="6" x="1566.66" y="160.2822"/><text fill="#000000" font-family="sans-serif" font-size="14" lengthAdjust="spacing" textLength="120.4014" x="1578.66" y="166.6289">contenido: String</text><rect fill="none" height="6" style="stroke:#C82930;stroke-width:1;" width="6" x="1566.66" y="176.5791"/><text fill="#000000" font-family="sans-serif" font-size="14" lengthAdjust="spacing" textLength="161.6289" x="1578.66" y="182.9257">fechaGeneracion: Date</text><line style="stroke:#181818;stroke-width:0.5;" x1="1559.66" x2="1745.2889" y1="190.2275" y2="190.2275"/></g><!--class Notificacion--><g class="entity" data-entity="Notificacion" data-source-line="61" data-uid="ent0011" id="entity_Notificacion"><rect fill="#F1F1F1" height="96.8906" rx="2.5" ry="2.5" style="stroke:#181818;stroke-width:0.5;" width="175.1943" x="833.88" y="348.5669"/><ellipse cx="876.1758" cy="364.5669" fill="#ADD1B2" rx="11" ry="11" style="stroke:#181818;stroke-width:1;"/><path d="M879.1445,370.2075 Q878.5664,370.5044 877.9258,370.645 Q877.2851,370.8013 876.582,370.8013 Q874.082,370.8013 872.7539,369.1606 Q871.4414,367.5044 871.4414,364.3794 Q871.4414,361.2544 872.7539,359.5981 Q874.082,357.9419 876.582,357.9419 Q877.2851,357.9419 877.9258,358.0981 Q878.582,358.2544 879.1445,358.5513 L879.1445,361.27 Q878.5195,360.6919 877.9258,360.4263 Q877.332,360.145 876.707,360.145 Q875.3633,360.145 874.6758,361.2231 Q873.9883,362.2856 873.9883,364.3794 Q873.9883,366.4731 874.6758,367.5513 Q875.3633,368.6138 876.707,368.6138 Q877.332,368.6138 877.9258,368.3481 Q878.5195,368.0669 879.1445,367.4888 L879.1445,370.2075 Z " fill="#000000"/><text fill="#000000" font-family="sans-serif" font-size="14" lengthAdjust="spacing" textLength="82.5371" x="896.2415" y="369.4136">Notificacion</text><line style="stroke:#181818;stroke-width:0.5;" x1="834.88" x2="1008.0743" y1="380.5669" y2="380.5669"/><rect fill="none" height="6" style="stroke:#C82930;stroke-width:1;" width="6" x="841.88" y="391.2153"/><text fill="#000000" font-family="sans-serif" font-size="14" lengthAdjust="spacing" textLength="149.1943" x="853.88" y="397.562">destinatario: Persona</text><rect fill="none" height="6" style="stroke:#C82930;stroke-width:1;" width="6" x="841.88" y="407.5122"/><text fill="#000000" font-family="sans-serif" font-size="14" lengthAdjust="spacing" textLength="110.4482" x="853.88" y="413.8589">mensaje: String</text><rect fill="none" height="6" style="stroke:#C82930;stroke-width:1;" width="6" x="841.88" y="423.8091"/><text fill="#000000" font-family="sans-serif" font-size="14" lengthAdjust="spacing" textLength="119.7793" x="853.88" y="430.1557">fechaEnvio: Date</text><line style="stroke:#181818;stroke-width:0.5;" x1="834.88" x2="1008.0743" y1="437.4575" y2="437.4575"/></g><!--class SistemaBiblioteca--><g class="entity" data-entity="SistemaBiblioteca" data-source-line="68" data-uid="ent0012" id="entity_SistemaBiblioteca"><rect fill="#F1F1F1" height="210.9688" rx="2.5" ry="2.5" style="stroke:#181818;stroke-width:0.5;" width="433.5518" x="672.7" y="44.2969"/><ellipse cx="822.4788" cy="60.2969" fill="#ADD1B2" rx="11" ry="11" style="stroke:#181818;stroke-width:1;"/><path d="M825.4476,65.9375 Q824.8694,66.2344 824.2288,66.375 Q823.5882,66.5313 822.8851,66.5313 Q820.3851,66.5313 819.0569,64.8906 Q817.7444,63.2344 817.7444,60.1094 Q817.7444,56.9844 819.0569,55.3281 Q820.3851,53.6719 822.8851,53.6719 Q823.5882,53.6719 824.2288,53.8281 Q824.8851,53.9844 825.4476,54.2813 L825.4476,57 Q824.8226,56.4219 824.2288,56.1563 Q823.6351,55.875 823.0101,55.875 Q821.6663,55.875 820.9788,56.9531 Q820.2913,58.0156 820.2913,60.1094 Q820.2913,62.2031 820.9788,63.2813 Q821.6663,64.3438 823.0101,64.3438 Q823.6351,64.3438 824.2288,64.0781 Q824.8226,63.7969 825.4476,63.2188 L825.4476,65.9375 Z " fill="#000000"/><text fill="#000000" font-family="sans-serif" font-size="14" lengthAdjust="spacing" textLength="125.4941" x="842.9788" y="65.1436">SistemaBiblioteca</text><line style="stroke:#181818;stroke-width:0.5;" x1="673.7" x2="1105.2518" y1="76.2969" y2="76.2969"/><rect fill="none" height="6" style="stroke:#C82930;stroke-width:1;" width="6" x="680.7" y="86.9453"/><text fill="#000000" font-family="sans-serif" font-size="14" lengthAdjust="spacing" textLength="130.2793" x="692.7" y="93.292">libros: List&lt;Libro&gt;</text><rect fill="none" height="6" style="stroke:#C82930;stroke-width:1;" width="6" x="680.7" y="103.2422"/><text fill="#000000" font-family="sans-serif" font-size="14" lengthAdjust="spacing" textLength="169.4287" x="692.7" y="109.5889">usuarios: List&lt;Usuario&gt;</text><rect fill="none" height="6" style="stroke:#C82930;stroke-width:1;" width="6" x="680.7" y="119.5391"/><text fill="#000000" font-family="sans-serif" font-size="14" lengthAdjust="spacing" textLength="197.5928" x="692.7" y="125.8857">prestamos: List&lt;Prestamo&gt;</text><line style="stroke:#181818;stroke-width:0.5;" x1="673.7" x2="1105.2518" y1="133.1875" y2="133.1875"/><ellipse cx="683.7" cy="146.8359" fill="#84BE84" rx="3" ry="3" style="stroke:#038048;stroke-width:1;"/><text fill="#000000" font-family="sans-serif" font-size="14" lengthAdjust="spacing" textLength="285.5098" x="692.7" y="150.1826">buscarLibro(criterio: String): List&lt;Libro&gt;</text><ellipse cx="683.7" cy="163.1328" fill="#84BE84" rx="3" ry="3" style="stroke:#038048;stroke-width:1;"/><text fill="#000000" font-family="sans-serif" font-size="14" lengthAdjust="spacing" textLength="407.5518" x="692.7" y="166.4795">prestarLibro(usuarioId: String, libroIsbn: String): Prestamo</text><ellipse cx="683.7" cy="179.4297" fill="#84BE84" rx="3" ry="3" style="stroke:#038048;stroke-width:1;"/><text fill="#000000" font-family="sans-serif" font-size="14" lengthAdjust="spacing" textLength="276.2949" x="692.7" y="182.7764">devolverLibro(prestamoId: String): void</text><ellipse cx="683.7" cy="195.7266" fill="#84BE84" rx="3" ry="3" style="stroke:#038048;stroke-width:1;"/><text fill="#000000" font-family="sans-serif" font-size="14" lengthAdjust="spacing" textLength="264.0449" x="692.7" y="199.0732">registrarUsuario(datos: Map): Usuario</text><ellipse cx="683.7" cy="212.0234" fill="#84BE84" rx="3" ry="3" style="stroke:#038048;stroke-width:1;"/><text fill="#000000" font-family="sans-serif" font-size="14" lengthAdjust="spacing" textLength="233.4336" x="692.7" y="215.3701">catalogarLibro(datos: Map): Libro</text><ellipse cx="683.7" cy="228.3203" fill="#84BE84" rx="3" ry="3" style="stroke:#038048;stroke-width:1;"/><text fill="#000000" font-family="sans-serif" font-size="14" lengthAdjust="spacing" textLength="264.25" x="692.7" y="231.667">generarReporte(tipo: String): Reporte</text><ellipse cx="683.7" cy="244.6172" fill="#84BE84" rx="3" ry="3" style="stroke:#038048;stroke-width:1;"/><text fill="#000000" font-family="sans-serif" font-size="14" lengthAdjust="spacing" textLength="371.5264" x="692.7" y="247.9639">enviarNotificacion(prestamo: Prestamo): Notificacion</text></g><path d="M1141.64,107.0869 L1141.64,123.2197 L1100.2518,161.6328 L1141.64,131.2197 L1141.64,147.3525 A0,0 0 0 0 1141.64,147.3525 L1341.1742,147.3525 A0,0 0 0 0 1341.1742,147.3525 L1341.1742,117.0869 L1331.1742,107.0869 L1141.64,107.0869 A0,0 0 0 0 1141.64,107.0869" fill="#FEFFDD" style="stroke:#181818;stroke-width:0.5;"/><path d="M1331.1742,107.0869 L1331.1742,117.0869 L1341.1742,117.0869 L1331.1742,107.0869" fill="#FEFFDD" style="stroke:#181818;stroke-width:0.5;"/><text fill="#000000" font-family="sans-serif" font-size="13" lengthAdjust="spacing" textLength="137.1665" x="1147.64" y="124.1538">Incluye buscarLibro()</text><text fill="#000000" font-family="sans-serif" font-size="13" lengthAdjust="spacing" textLength="178.5342" x="1147.64" y="139.2866">Incluye enviarNotificacion()</text><path d="M1141.64,157.3525 L1141.64,165.9189 L968.9949,177.9297 L1141.64,173.9189 L1141.64,182.4853 A0,0 0 0 0 1141.64,182.4853 L1523.3011,182.4853 A0,0 0 0 0 1523.3011,182.4853 L1523.3011,167.3525 L1513.3011,157.3525 L1141.64,157.3525 A0,0 0 0 0 1141.64,157.3525" fill="#FEFFDD" style="stroke:#181818;stroke-width:0.5;"/><path d="M1513.3011,157.3525 L1513.3011,167.3525 L1523.3011,167.3525 L1513.3011,157.3525" fill="#FEFFDD" style="stroke:#181818;stroke-width:0.5;"/><text fill="#000000" font-family="sans-serif" font-size="13" lengthAdjust="spacing" textLength="360.6611" x="1147.64" y="174.4194">Incluye buscarLibro() ' Para encontrar el pr&#233;stamo/libro</text><!--reverse link Persona to Usuario--><g class="link" data-entity-1="Persona" data-entity-2="Usuario" data-source-line="14" data-uid="lnk4" id="link_Persona_Usuario"><path d="M185.8486,232.5684 C190.2386,263.5084 198.46,280.7069 223.47,302.2669 C264.85,337.9369 414.37,319.4569 467.47,332.2669 C485.3,336.5669 503.81,342.1169 521.82,348.1369" fill="none" id="Persona-backto-Usuario" style="stroke:#181818;stroke-width:1;"/><polygon fill="none" points="183.32,214.7469,179.9081,233.4113,191.7891,231.7255,183.32,214.7469" style="stroke:#181818;stroke-width:1;"/></g><!--reverse link Persona to Bibliotecario--><g class="link" data-entity-1="Persona" data-entity-2="Bibliotecario" data-source-line="20" data-uid="lnk6" id="link_Persona_Bibliotecario"><path d="M175.0192,232.9075 C174.1392,260.1675 175.84,274.1069 182.47,302.2669 C184.8,312.1469 188.31,322.1969 192.38,331.8569" fill="none" id="Persona-backto-Bibliotecario" style="stroke:#181818;stroke-width:1;"/><polygon fill="none" points="175.6,214.9169,169.0224,232.7139,181.0161,233.1011,175.6,214.9169" style="stroke:#181818;stroke-width:1;"/></g><!--reverse link SistemaBiblioteca to Libro--><g class="link" data-entity-1="SistemaBiblioteca" data-entity-2="Libro" data-source-line="82" data-uid="lnk13" id="link_SistemaBiblioteca_Libro"><path codeLine="82" d="M1117.8388,253.1189 C1123.8488,255.2689 1118.54,253.2969 1124.47,255.2669 C1181.56,274.2469 1207.53,250.2769 1256.47,285.2669 C1276.44,299.5469 1278.77,308.6569 1285.47,332.2669 C1331.28,493.7269 1224.37,673.1369 1145.46,777.4069" fill="none" id="SistemaBiblioteca-backto-Libro" style="stroke:#181818;stroke-width:1;"/><polygon fill="none" points="1106.54,249.0769,1110.8421,254.8641,1117.8388,253.1189,1113.5367,247.3316,1106.54,249.0769" style="stroke:#181818;stroke-width:1;"/><polygon fill="#000000" points="1292.7331,505.3164,1295.192,496.1292,1289.3223,496.4384,1292.7331,505.3164" style="stroke:#000000;stroke-width:1;"/><text fill="#000000" font-family="sans-serif" font-size="13" lengthAdjust="spacing" textLength="55.8911" x="1301.47" y="504.8238">gestiona</text><text fill="#000000" font-family="sans-serif" font-size="13" lengthAdjust="spacing" textLength="8.271" x="1114.4894" y="264.9841">1</text><text fill="#000000" font-family="sans-serif" font-size="13" lengthAdjust="spacing" textLength="6.5" x="1145.2164" y="766.7408">*</text></g><!--reverse link SistemaBiblioteca to Usuario--><g class="link" data-entity-1="SistemaBiblioteca" data-entity-2="Usuario" data-source-line="83" data-uid="lnk14" id="link_SistemaBiblioteca_Usuario"><path codeLine="83" d="M778.9072,264.0946 C763.2872,279.8346 755.74,287.2869 740.47,302.2669 C725.1,317.3569 708.14,333.5569 692.68,348.1869" fill="none" id="SistemaBiblioteca-backto-Usuario" style="stroke:#181818;stroke-width:1;"/><polygon fill="none" points="787.36,255.5769,780.2944,257.0181,778.9072,264.0946,785.9729,262.6533,787.36,255.5769" style="stroke:#181818;stroke-width:1;"/><polygon fill="#000000" points="757.8904,297.3242,766.4179,293.1131,762.314,288.905,757.8904,297.3242" style="stroke:#000000;stroke-width:1;"/><text fill="#000000" font-family="sans-serif" font-size="13" lengthAdjust="spacing" textLength="55.8911" x="770.47" y="298.3338">gestiona</text><text fill="#000000" font-family="sans-serif" font-size="13" lengthAdjust="spacing" textLength="8.271" x="772.2394" y="275.2603">1</text><text fill="#000000" font-family="sans-serif" font-size="13" lengthAdjust="spacing" textLength="6.5" x="693.495" y="337.3424">*</text></g><!--reverse link SistemaBiblioteca to Bibliotecario--><g class="link" data-entity-1="SistemaBiblioteca" data-entity-2="Bibliotecario" data-source-line="84" data-uid="lnk15" id="link_SistemaBiblioteca_Bibliotecario"><path codeLine="84" d="M660.6697,172.8716 C500.0697,192.6216 311.27,226.7869 252.47,285.2669 C240.06,297.6169 233.38,314.7669 229.94,331.8769" fill="none" id="SistemaBiblioteca-backto-Bibliotecario" style="stroke:#181818;stroke-width:1;"/><polygon fill="none" points="672.58,171.4069,666.1366,168.1691,660.6697,172.8716,667.1131,176.1093,672.58,171.4069" style="stroke:#181818;stroke-width:1;"/><text fill="#000000" font-family="sans-serif" font-size="13" lengthAdjust="spacing" textLength="478.7466" x="253.47" y="298.3338">gestiona &gt; ' Opcional, si los bibliotecarios son gestionados por el sistema</text><text fill="#000000" font-family="sans-serif" font-size="13" lengthAdjust="spacing" textLength="8.271" x="656.6464" y="168.9838">1</text><text fill="#000000" font-family="sans-serif" font-size="13" lengthAdjust="spacing" textLength="6.5" x="223.7998" y="321.0069">*</text></g><!--reverse link SistemaBiblioteca to Prestamo--><g class="link" data-entity-1="SistemaBiblioteca" data-entity-2="Prestamo" data-source-line="85" data-uid="lnk16" id="link_SistemaBiblioteca_Prestamo"><path codeLine="85" d="M1117.9003,252.9282 C1123.8703,255.2082 1118.6,253.1369 1124.47,255.2669 C1172.53,272.7169 1251.82,256.2869 1229.47,302.2669 C1157.86,449.5969 981.13,537.1169 860.7,581.5869" fill="none" id="SistemaBiblioteca-backto-Prestamo" style="stroke:#181818;stroke-width:1;"/><polygon fill="none" points="1106.69,248.6469,1110.868,254.5243,1117.9003,252.9282,1113.7222,247.0508,1106.69,248.6469" style="stroke:#181818;stroke-width:1;"/><polygon fill="#000000" points="1214.3885,401.0109,1222.2774,395.6989,1217.6485,392.0765,1214.3885,401.0109" style="stroke:#000000;stroke-width:1;"/><text fill="#000000" font-family="sans-serif" font-size="13" lengthAdjust="spacing" textLength="50.3877" x="1226.47" y="401.5738">registra</text><text fill="#000000" font-family="sans-serif" font-size="13" lengthAdjust="spacing" textLength="8.271" x="1113.953" y="248.7139">1</text><text fill="#000000" font-family="sans-serif" font-size="13" lengthAdjust="spacing" textLength="6.5" x="868.2855" y="575.8724">*</text></g><!--link Usuario to Prestamo--><g class="link" data-entity-1="Usuario" data-entity-2="Prestamo" data-source-line="87" data-uid="lnk17" id="link_Usuario_Prestamo"><path codeLine="87" d="M632.17,445.7469 C630.27,465.8169 630.8,489.0369 638.47,508.7569 C642.47,519.0269 647.93,528.9169 654.24,538.2769" fill="none" id="Usuario-Prestamo" style="stroke:#181818;stroke-width:1;"/><polygon fill="#000000" points="644.63,505.1868,645.3902,495.7067,639.6728,497.0704,644.63,505.1868" style="stroke:#000000;stroke-width:1;"/><text fill="#000000" font-family="sans-serif" font-size="13" lengthAdjust="spacing" textLength="43.3228" x="652.47" y="504.8238">realiza</text><text fill="#000000" font-family="sans-serif" font-size="13" lengthAdjust="spacing" textLength="8.271" x="622.4014" y="465.3792">1</text><text fill="#000000" font-family="sans-serif" font-size="13" lengthAdjust="spacing" textLength="6.5" x="640.6792" y="527.6994">*</text></g><!--link Prestamo to Usuario--><g class="link" data-entity-1="Prestamo" data-entity-2="Usuario" data-source-line="91" data-uid="lnk20" id="link_Prestamo_Usuario"><path codeLine="91" d="M718.28,538.3069 C713.17,522.5869 707.2,506.4369 700.47,491.7569 C693.34,476.1969 684.04,460.1269 674.93,445.7769" fill="none" id="Prestamo-Usuario" style="stroke:#181818;stroke-width:1;"/><polygon fill="#000000" points="714.5912,504.851,713.4152,495.4134,708.0926,497.9071,714.5912,504.851" style="stroke:#000000;stroke-width:1;"/><text fill="#000000" font-family="sans-serif" font-size="13" lengthAdjust="spacing" textLength="29.5293" x="721.47" y="504.8238">para</text><text fill="#000000" font-family="sans-serif" font-size="13" lengthAdjust="spacing" textLength="8.271" x="708.1268" y="527.732">1</text><text fill="#000000" font-family="sans-serif" font-size="13" lengthAdjust="spacing" textLength="8.271" x="670.9072" y="465.4133">1</text></g><!--link Bibliotecario to Prestamo--><g class="link" data-entity-1="Bibliotecario" data-entity-2="Prestamo" data-source-line="88" data-uid="lnk18" id="link_Bibliotecario_Prestamo"><path codeLine="88" d="M279.82,462.1369 C296.33,479.3469 315.76,496.5569 336.47,508.7569 C423.34,559.9069 534.68,587.9569 618.32,602.9069" fill="none" id="Bibliotecario-Prestamo" style="stroke:#181818;stroke-width:1;"/><text fill="#000000" font-family="sans-serif" font-size="13" lengthAdjust="spacing" textLength="287.333" x="337.47" y="504.8238">gestiona &gt; ' Gestiona pr&#233;stamos en general</text><text fill="#000000" font-family="sans-serif" font-size="13" lengthAdjust="spacing" textLength="8.271" x="276.7167" y="481.7004">1</text><text fill="#000000" font-family="sans-serif" font-size="13" lengthAdjust="spacing" textLength="6.5" x="603.9954" y="598.3396">*</text></g><!--link Prestamo to Libro--><g class="link" data-entity-1="Prestamo" data-entity-2="Libro" data-source-line="90" data-uid="lnk19" id="link_Prestamo_Libro"><path codeLine="90" d="M847.85,701.0869 C886.13,729.4469 929.05,761.2469 966.91,789.2969" fill="none" id="Prestamo-Libro" style="stroke:#181818;stroke-width:1;"/><polygon fill="#000000" points="905.4525,736.4168,910.9707,744.1628,914.4698,739.4399,905.4525,736.4168" style="stroke:#000000;stroke-width:1;"/><text fill="#000000" font-family="sans-serif" font-size="13" lengthAdjust="spacing" textLength="46.541" x="918.47" y="743.8938">incluye</text><text fill="#000000" font-family="sans-serif" font-size="13" lengthAdjust="spacing" textLength="8.271" x="848.8318" y="720.7899">1</text><text fill="#000000" font-family="sans-serif" font-size="13" lengthAdjust="spacing" textLength="8.271" x="951.0208" y="780.1105">1</text></g><!--link Libro to EstadoLibro--><g class="link" data-entity-1="Libro" data-entity-2="EstadoLibro" data-source-line="93" data-uid="lnk21" id="link_Libro_EstadoLibro"><path codeLine="93" d="M1070.47,956.6569 C1070.47,982.7469 1070.47,1010.3069 1070.47,1032.7969" fill="none" id="Libro-EstadoLibro" style="stroke:#181818;stroke-width:1;"/><polygon fill="#000000" points="1075.47,999.7733,1078.4089,990.7282,1072.5311,990.7282,1075.47,999.7733" style="stroke:#000000;stroke-width:1;"/><text fill="#000000" font-family="sans-serif" font-size="13" lengthAdjust="spacing" textLength="32.9443" x="1084.47" y="999.2738">tiene</text><text fill="#000000" font-family="sans-serif" font-size="13" lengthAdjust="spacing" textLength="8.271" x="1062.1739" y="976.1663">1</text><text fill="#000000" font-family="sans-serif" font-size="13" lengthAdjust="spacing" textLength="8.271" x="1061.9509" y="1022.2999">1</text></g><!--link SistemaBiblioteca to Notificacion--><g class="link" data-entity-1="SistemaBiblioteca" data-entity-2="Notificacion" data-source-line="95" data-uid="lnk22" id="link_SistemaBiblioteca_Notificacion"><path codeLine="95" d="M882,255.5169 C882.43,271.2669 883.76,287.2569 886.47,302.2669 C889.25,317.6569 892.2661,328.1992 897.7761,342.6792" fill="none" id="SistemaBiblioteca-to-Notificacion" style="stroke:#181818;stroke-width:1;stroke-dasharray:7.0,7.0;"/><polygon fill="#181818" points="899.91,348.2869,900.4477,338.4527,898.1318,343.6138,892.9707,341.2979,899.91,348.2869" style="stroke:#181818;stroke-width:1;"/><text fill="#000000" font-family="sans-serif" font-size="13" lengthAdjust="spacing" textLength="337.3018" x="887.47" y="298.3338">crea y env&#237;a &gt; ' Interacci&#243;n para enviar notificaci&#243;n</text></g><!--SRC=[nLRBRXCn5DtFLrZPD86MYcrKLMf9G95A6wN0_ex7JOqSUsHx8Whg1x5WnIVqnxX-ZgT9ALsnIMRk-t5yF0Va4xUTKAHXWimuh3LieBBS2fPVKKVU2J3Ca2DopOrbGNREQy6LPHIgwY1PdEClkIDdr2hDJ0MriHge9HJLXYoPDae2-L4HZCMRARcscikrVvLgKsis454bBNghGlYQh9bTDEF9OzcbTo_azrKLidus7MYk2FjccMo6LRmcHWbEkGMzn88jRDHOy5fZoWltX-6It5itRAl4bccl7BTHrHkX_LRnnjlMdQ4GBQdcbc4HgRg9Ys_iYTUUzhNsGtswOitMt8rLnyR63LXbfkGZj1Ws2hqb1Gj2hLCH0pilYiEJ3AEjMAkqPMFBsxBCA8wMnd8if9zL5xBbj8VaRzFJZFAQwvaROaSnqbycU5-WogDJRRZ4liASVFY48rFB0Moin_H011q2SY1nsHeqcll_SXfsWG5t0HPEogxyp8L-97R1PzoqIk8-FIZFbH8Cf6kBoMvJflLjp1RNowlBnVd575-Mg_drfxFP5JxYqtprnJrdZAH9vMEqp4Ci-Yltu0MFL-M5DupUGky_0x_fAE_tX1PRn1myRR5Y8BBM8K_GJe3-s0aBhlyReS3sFKHKnHPAoEM3poHlXbAVyeD7gqiPq-MObyho6qwzpWTsFes3hCHpu5kF1odgDamQ-5fIJiuobrkk-WGHYJXwBYblGNX89Z8SlmTqQU3u7PQjbS35waaiAjhqvpgsxDTZXYnGR2bfugw2BXsMf4nxEtqftJZp42pQnwoBpCZn72-Ae_LlLDY7AAdm_r4MmqM2Bg6ndtDAYx3n5HF-3Q-ntIMEtew8EZeYerUZo4NJp8xaz1c7T26zm6LuBvIEv81SjQvE48V4S2AK8NLfRV2AazcXmNUS3a7ucf3ncSoPRQPvYrXjbNfmfliiGV3lpd1O-7xhGJCVqakh7tu6kECIuyP5LMM_5Ejjlm4ydAAxO-HahrK_zXQmYPEg2dw5ISdAKwGbJEgQtPtGcpUdGxwP4efDuwSF0kxXLsXbWII6L4NvmsyPSWOqugTEyaGDGcsf6ksSRg5ccdJOlFRWStv8XIX9o_AV15egj-bHB6k4rqsIOx3znKRfF9WzAZtKx42F2Z046XuGXO5hC4XjVWU8cQRuAAHWbBkRaRDKXIqneldwrX9rirl3T5ho3PxCHLnLoLgJGhxdt4xmvcpSx5ZrVBe1EpsL3tUq36jn5muIYcinu-xOKs1E-WS0]--></g></svg>