<svg xmlns="http://www.w3.org/2000/svg" xmlns:xlink="http://www.w3.org/1999/xlink" contentStyleType="text/css" data-diagram-type="DESCRIPTION" height="359px" preserveAspectRatio="none" style="width:1080px;height:359px;background:#FFFFFF;" version="1.1" viewBox="0 0 1080 359" width="1080px" zoomAndPan="magnify"><defs/><g><!--cluster Sistema de Banca en L?nea--><g class="cluster" data-entity="Sistema de Banca en L&#237;nea" data-source-line="7" data-uid="ent0005" id="cluster_Sistema de Banca en L&#237;nea"><rect fill="none" height="224.71" rx="2.5" ry="2.5" style="stroke:#181818;stroke-width:1;" width="893" x="7" y="128.8"/><text fill="#000000" font-family="sans-serif" font-size="14" font-weight="bold" lengthAdjust="spacing" textLength="212.3721" x="347.314" y="143.7951">Sistema de Banca en L&#237;nea</text></g><!--entity UC1--><g class="entity" data-entity="UC1" data-source-line="8" data-uid="ent0006" id="entity_UC1"><ellipse cx="624.0011" cy="182.2742" fill="#F1F1F1" rx="64.3711" ry="15.2742" style="stroke:#181818;stroke-width:0.5;"/><text fill="#000000" font-family="sans-serif" font-size="14" lengthAdjust="spacing" textLength="91.793" x="578.1046" y="186.9227">Iniciar sesi&#243;n</text></g><!--entity UC2--><g class="entity" data-entity="UC2" data-source-line="9" data-uid="ent0007" id="entity_UC2"><ellipse cx="453.9992" cy="182.2698" fill="#F1F1F1" rx="70.9492" ry="16.5898" style="stroke:#181818;stroke-width:0.5;"/><text fill="#000000" font-family="sans-serif" font-size="14" lengthAdjust="spacing" textLength="108.7598" x="399.6193" y="186.9183">Consultar saldo</text></g><!--entity UC3--><g class="entity" data-entity="UC3" data-source-line="10" data-uid="ent0008" id="entity_UC3"><ellipse cx="273.0037" cy="182.2687" fill="#F1F1F1" rx="75.3437" ry="17.4687" style="stroke:#181818;stroke-width:0.5;"/><text fill="#000000" font-family="sans-serif" font-size="14" lengthAdjust="spacing" textLength="119.5605" x="213.2234" y="186.9172">Transferir fondos</text></g><!--entity UC4--><g class="entity" data-entity="UC4" data-source-line="11" data-uid="ent0009" id="entity_UC4"><ellipse cx="93.0011" cy="182.2682" fill="#F1F1F1" rx="69.8411" ry="16.3682" style="stroke:#181818;stroke-width:0.5;"/><text fill="#000000" font-family="sans-serif" font-size="14" lengthAdjust="spacing" textLength="105.9775" x="40.0124" y="186.9167">Pagar servicios</text></g><!--entity UC5--><g class="entity" data-entity="UC5" data-source-line="12" data-uid="ent0010" id="entity_UC5"><ellipse cx="804.0023" cy="182.2685" fill="#F1F1F1" rx="80.3423" ry="18.4685" style="stroke:#181818;stroke-width:0.5;"/><text fill="#000000" font-family="sans-serif" font-size="14" lengthAdjust="spacing" textLength="131.4824" x="738.2611" y="186.9169">Gestionar usuarios</text></g><!--entity UC6--><g class="entity" data-entity="UC6" data-source-line="13" data-uid="ent0011" id="entity_UC6"><ellipse cx="623.9954" cy="317.4591" fill="#F1F1F1" rx="79.3454" ry="18.2691" style="stroke:#181818;stroke-width:0.5;"/><text fill="#000000" font-family="sans-serif" font-size="14" lengthAdjust="spacing" textLength="129.1309" x="559.43" y="322.1075">Verificar identidad</text></g><!--entity UC7--><g class="entity" data-entity="UC7" data-source-line="14" data-uid="ent0012" id="entity_UC7"><ellipse cx="154.9951" cy="317.457" fill="#F1F1F1" rx="88.2351" ry="20.047" style="stroke:#181818;stroke-width:0.5;"/><text fill="#000000" font-family="sans-serif" font-size="14" lengthAdjust="spacing" textLength="149.7344" x="80.1279" y="322.1055">Registrar transacci&#243;n</text></g><!--entity client--><g class="entity" data-entity="client" data-source-line="2" data-uid="ent0002" id="entity_client"><ellipse cx="329.0018" cy="14" fill="#F1F1F1" rx="8" ry="8" style="stroke:#181818;stroke-width:0.5;"/><path d="M329.0018,22 L329.0018,49 M316.0018,30 L342.0018,30 M329.0018,49 L316.0018,64 M329.0018,49 L342.0018,64" fill="none" style="stroke:#181818;stroke-width:0.5;"/><text fill="#000000" font-family="sans-serif" font-size="14" lengthAdjust="spacing" textLength="49.1436" x="304.43" y="78.4951">Cliente</text></g><!--entity admin--><g class="entity" data-entity="admin" data-source-line="3" data-uid="ent0003" id="entity_admin"><ellipse cx="714" cy="14" fill="#F1F1F1" rx="8" ry="8" style="stroke:#181818;stroke-width:0.5;"/><path d="M714,22 L714,49 M701,30 L727,30 M714,49 L701,64 M714,49 L727,64" fill="none" style="stroke:#181818;stroke-width:0.5;"/><text fill="#000000" font-family="sans-serif" font-size="14" lengthAdjust="spacing" textLength="99.0801" x="664.46" y="78.4951">Administrador</text></g><!--entity secSystem--><g class="entity" data-entity="secSystem" data-source-line="4" data-uid="ent0004" id="entity_secSystem"><ellipse cx="996.0039" cy="152.62" fill="#F1F1F1" rx="8" ry="8" style="stroke:#181818;stroke-width:0.5;"/><path d="M996.0039,160.62 L996.0039,187.62 M983.0039,168.62 L1009.0039,168.62 M996.0039,187.62 L983.0039,202.62 M996.0039,187.62 L1009.0039,202.62" fill="none" style="stroke:#181818;stroke-width:0.5;"/><text fill="#000000" font-family="sans-serif" font-size="14" lengthAdjust="spacing" textLength="154.0479" x="918.98" y="217.1151">Sistema de Seguridad</text></g><!--link client to UC1--><g class="link" data-entity-1="client" data-entity-2="UC1" data-source-line="18" data-uid="lnk13" id="link_client_UC1"><path d="M353.94,51 C394.75,61.96 477.7,86.56 542,120.8 C566.67,133.94 587.5285,150.0276 603.3985,163.3776" fill="none" id="client-to-UC1" style="stroke:#181818;stroke-width:1;"/><polygon fill="#181818" points="607.99,167.24,603.6777,158.3854,604.1638,164.0213,598.5278,164.5074,607.99,167.24" style="stroke:#181818;stroke-width:1;"/></g><!--link client to UC2--><g class="link" data-entity-1="client" data-entity-2="UC2" data-source-line="19" data-uid="lnk14" id="link_client_UC2"><path d="M354,71.97 C379.79,100.16 415.0502,138.6929 435.8702,161.4529" fill="none" id="client-to-UC2" style="stroke:#181818;stroke-width:1;"/><polygon fill="#181818" points="439.92,165.88,436.7968,156.5395,436.5452,162.1907,430.8939,161.9392,439.92,165.88" style="stroke:#181818;stroke-width:1;"/></g><!--link client to UC3--><g class="link" data-entity-1="client" data-entity-2="UC3" data-source-line="20" data-uid="lnk15" id="link_client_UC3"><path d="M313.7,81.98 C302.62,109 290.4533,138.6673 282.0933,159.0873" fill="none" id="client-to-UC3" style="stroke:#181818;stroke-width:1;"/><polygon fill="#181818" points="279.82,164.64,286.9317,157.8265,281.7144,160.0128,279.5281,154.7955,279.82,164.64" style="stroke:#181818;stroke-width:1;"/></g><!--link client to UC4--><g class="link" data-entity-1="client" data-entity-2="UC4" data-source-line="21" data-uid="lnk16" id="link_client_UC4"><path d="M304.19,56.06 C274.17,70.16 222.36,95.41 180,120.8 C156.18,135.08 135.021,149.9917 117.711,162.7417" fill="none" id="client-to-UC4" style="stroke:#181818;stroke-width:1;"/><polygon fill="#181818" points="112.88,166.3,122.4987,164.1831,116.9058,163.3347,117.7542,157.7418,112.88,166.3" style="stroke:#181818;stroke-width:1;"/></g><!--link admin to UC1--><g class="link" data-entity-1="admin" data-entity-2="UC1" data-source-line="22" data-uid="lnk17" id="link_admin_UC1"><path d="M689.41,81.98 C670.98,109.95 650.071,141.6997 636.881,161.7197" fill="none" id="admin-to-UC1" style="stroke:#181818;stroke-width:1;"/><polygon fill="#181818" points="633.58,166.73,641.8717,161.4152,636.3308,162.5547,635.1913,157.0138,633.58,166.73" style="stroke:#181818;stroke-width:1;"/></g><!--link admin to UC5--><g class="link" data-entity-1="admin" data-entity-2="UC5" data-source-line="23" data-uid="lnk18" id="link_admin_UC5"><path d="M738.59,81.98 C756.08,108.53 775.4783,137.9801 789.0283,158.5401" fill="none" id="admin-to-UC5" style="stroke:#181818;stroke-width:1;"/><polygon fill="#181818" points="792.33,163.55,790.7173,153.8341,789.5786,159.3751,784.0375,158.2364,792.33,163.55" style="stroke:#181818;stroke-width:1;"/></g><!--link secSystem to UC6--><g class="link" data-entity-1="secSystem" data-entity-2="UC6" data-source-line="24" data-uid="lnk19" id="link_secSystem_UC6"><path d="M918.54,213.5 C912.28,215.87 906.04,218.2 900,220.42 C818.33,250.42 727.8936,281.4073 673.3536,299.8573" fill="none" id="secSystem-to-UC6" style="stroke:#181818;stroke-width:1;"/><polygon fill="#181818" points="667.67,301.78,677.4772,302.6851,672.4063,300.1778,674.9136,295.1069,667.67,301.78" style="stroke:#181818;stroke-width:1;"/></g><!--link UC1 to UC6--><g class="link" data-entity-1="UC1" data-entity-2="UC6" data-source-line="27" data-uid="lnk20" id="link_UC1_UC6"><path d="M624,198.03 C624,222.82 624,266.69 624,293.11" fill="none" id="UC1-to-UC6" style="stroke:#181818;stroke-width:1;stroke-dasharray:7.0,7.0;"/><polygon fill="#181818" points="624,299.11,628,290.11,624,294.11,620,290.11,624,299.11" style="stroke:#181818;stroke-width:1;"/><text fill="#000000" font-family="sans-serif" font-size="13" lengthAdjust="spacing" textLength="63.0068" x="625" y="263.4869">&#171;include&#187;</text></g><!--link UC3 to UC6--><g class="link" data-entity-1="UC3" data-entity-2="UC6" data-source-line="28" data-uid="lnk21" id="link_UC3_UC6"><path d="M309.14,197.93 C326.32,204.85 347.18,213.16 366,220.42 C442.25,249.83 526.1146,280.7504 577.1446,299.4004" fill="none" id="UC3-to-UC6" style="stroke:#181818;stroke-width:1;stroke-dasharray:7.0,7.0;"/><polygon fill="#181818" points="582.78,301.46,575.6999,294.6137,578.0838,299.7437,572.9538,302.1276,582.78,301.46" style="stroke:#181818;stroke-width:1;"/><text fill="#000000" font-family="sans-serif" font-size="13" lengthAdjust="spacing" textLength="63.0068" x="486" y="263.4869">&#171;include&#187;</text></g><!--link UC3 to UC7--><g class="link" data-entity-1="UC3" data-entity-2="UC7" data-source-line="29" data-uid="lnk22" id="link_UC3_UC7"><path d="M258.29,199.87 C236.3,224.69 198.9288,266.879 175.7788,293.009" fill="none" id="UC3-to-UC7" style="stroke:#181818;stroke-width:1;stroke-dasharray:7.0,7.0;"/><polygon fill="#181818" points="171.8,297.5,180.7622,293.4161,175.1157,293.7575,174.7742,288.111,171.8,297.5" style="stroke:#181818;stroke-width:1;"/><text fill="#000000" font-family="sans-serif" font-size="13" lengthAdjust="spacing" textLength="63.0068" x="212" y="263.4869">&#171;include&#187;</text></g><!--link UC4 to UC7--><g class="link" data-entity-1="UC4" data-entity-2="UC7" data-source-line="30" data-uid="lnk23" id="link_UC4_UC7"><path d="M98.95,199 C105.55,216.08 116.74,244.04 128,267.42 C132.81,277.4 135.7409,282.9948 140.7809,291.9248" fill="none" id="UC4-to-UC7" style="stroke:#181818;stroke-width:1;stroke-dasharray:7.0,7.0;"/><polygon fill="#181818" points="143.73,297.15,142.7899,287.3461,141.2724,292.7956,135.8229,291.2782,143.73,297.15" style="stroke:#181818;stroke-width:1;"/><text fill="#000000" font-family="sans-serif" font-size="13" lengthAdjust="spacing" textLength="63.0068" x="129" y="263.4869">&#171;include&#187;</text></g><!--SRC=[XP7DIWCn58NtUOfBDrsrO7z1f51d8GKNqbhtb-Hs24nl83SZ5l6HNFa8VJ6Jj1rJ55pDd9mlEScvVLZgu3o9mlI5NjLOua0zG06T_o_EqkmjMmaUZVFPnxHoiJVHeZs28TXGtNfhq6HAI6yEoLEg3nMAayIqufGd7P3hXgvstoDh169uF7uoOG_U5KISD4e4LsorHHzF5NlyufomhMvAf78iRHCIX8rnPsHK8iyUMNRahOUTO-Fa38rBw0dh7EHVOsI7J4haWIHOnn5hfKN_GqrBwYK6xQoEb3MnqAwPRJKhiJNLkLuF8LqFjIvUE5SVgRyrDHWlmt5Wf-d0OB381Lp9qRKSNyk9ofFhjfPgghfvdLTcANV5kcab1yC1w2qGdvIA1y1mc46uXRixcqX3YqLqnlywyr_Ev6_d6m00]--></g></svg>